<?xml version="1.0" encoding="utf-8"?>
<!-- Generator: Adobe Illustrator 18.1.1, SVG Export Plug-In . SVG Version: 6.00 Build 0)  -->
<!DOCTYPE svg PUBLIC "-//W3C//DTD SVG 1.1//EN" "http://www.w3.org/Graphics/SVG/1.1/DTD/svg11.dtd">
<svg version="1.1" id="圖層_1" xmlns="http://www.w3.org/2000/svg" xmlns:xlink="http://www.w3.org/1999/xlink" x="0px" y="0px"
	 viewBox="0 0 140 55" enable-background="new 0 0 140 55" xml:space="preserve">
<path fill="#E72418" d="M24.3,8.9c0,0-16.7,1.9-14.4,14.4c0,0-0.8,0.8-2.5-1.7c0,0,1,3.4,4.3,5.5c0,0,6.5,11.9-0.5,17.3
	c0,0,8.7,1.3,7.6-13.2c0,0,1.7,1.3,5.6,0.6c0,0,5,9.3-12.1,13.7c0,0,20.9,4.9,23.3-17.5c0,0,5.3-3.3,6.5-7.7c0,0-1.9,2.1-3,2.1
	c0,0,2.3-7.3-7.4-10.2c0,0,8.6,6.1,0.4,13.5c0,0-10.3,6.7-15.6-3.6C16.3,22.1,12.6,13.7,24.3,8.9z"/>
</svg>
